<?xml version="1.0" standalone="no"?>
<!DOCTYPE svg PUBLIC "-//W3C//DTD SVG 20010904//EN"
 "http://www.w3.org/TR/2001/REC-SVG-20010904/DTD/svg10.dtd">
<svg version="1.0" xmlns="http://www.w3.org/2000/svg"
 width="500.000000pt" height="226.000000pt" viewBox="0 0 500.000000 226.000000"
 preserveAspectRatio="xMidYMid meet">

<g transform="translate(0.000000,226.000000) scale(0.100000,-0.100000)"
fill="#000000" stroke="none">
<path d="M2895 2103 c-40 -21 -76 -54 -69 -64 3 -5 -1 -9 -9 -9 -8 0 -18 -7
-21 -16 -10 -26 -5 -107 8 -144 11 -28 18 -35 37 -33 160 16 179 20 198 37 12
11 19 21 16 24 -3 3 2 14 11 23 13 14 15 29 10 60 -10 64 -33 99 -79 120 -51
22 -63 23 -102 2z"/>
<path d="M2150 2065 c0 -3 11 -23 25 -46 l26 -40 -21 -28 c-20 -29 -27 -57
-12 -47 5 3 9 -1 9 -9 0 -13 -4 -12 -19 2 -17 15 -18 15 -18 -3 0 -22 58 -84
78 -84 7 0 12 -4 12 -10 0 -5 16 -10 35 -10 23 0 35 -5 35 -13 0 -23 37 -49
59 -42 10 3 34 29 52 57 l33 51 -37 32 c-20 18 -46 52 -57 77 -21 48 -53 67
-77 46 -11 -9 -23 -2 -56 30 -37 37 -67 53 -67 37z m96 -118 c4 -4 13 -2 20 4
9 8 11 5 7 -11 -5 -19 -7 -19 -23 -5 -9 8 -19 12 -22 9 -3 -3 -9 -1 -12 4 -7
11 19 10 30 -1z m79 -46 c3 -5 2 -12 -3 -15 -5 -3 -9 1 -9 9 0 17 3 19 12 6z"/>
<path d="M2796 1658 c-8 -31 -8 -38 3 -38 12 0 22 43 12 53 -5 5 -11 -2 -15
-15z"/>
<path d="M2967 1654 c-12 -12 -8 -24 8 -24 8 0 15 -4 15 -10 0 -5 -7 -7 -15
-4 -31 12 -13 -12 21 -28 34 -16 36 -16 44 5 11 29 -10 61 -42 65 -13 2 -27 0
-31 -4z m63 -38 c0 -2 -7 -7 -16 -10 -8 -3 -12 -2 -9 4 6 10 25 14 25 6z"/>
<path d="M1226 1634 c-14 -13 -16 -52 -16 -273 0 -275 6 -319 50 -381 26 -37
90 -69 136 -70 17 0 37 -7 44 -15 7 -8 21 -15 31 -15 11 0 19 7 19 15 0 8 8
15 19 15 10 0 24 -7 31 -15 16 -19 50 -19 50 0 0 8 8 15 19 15 10 0 24 -7 31
-15 16 -19 50 -19 50 0 0 8 8 15 19 15 10 0 24 -7 31 -15 7 -8 21 -15 31 -15
11 0 19 7 19 15 0 10 10 15 29 15 71 0 148 47 184 113 21 40 22 54 25 322 3
253 2 281 -14 292 -11 8 -23 9 -35 3 -16 -9 -18 -33 -21 -272 -5 -393 8 -380
-349 -379 -270 2 -276 3 -303 72 -13 32 -16 85 -16 298 0 223 -2 262 -16 275
-8 9 -19 16 -24 16 -5 0 -16 -7 -24 -16z"/>
<path d="M2850 1632 c0 -11 6 -22 14 -25 10 -4 12 0 9 14 -7 27 -23 34 -23 11z"/>
<path d="M2905 1561 c-3 -5 -1 -12 5 -16 5 -3 10 1 10 9 0 18 -6 21 -15 7z"/>
<path d="M2870 1549 c0 -5 5 -7 10 -4 6 3 10 8 10 11 0 2 -4 4 -10 4 -5 0 -10
-5 -10 -11z"/>
<path d="M2940 1550 c0 -5 5 -10 10 -10 6 0 10 5 10 10 0 6 -4 10 -10 10 -5 0
-10 -4 -10 -10z"/>
<path d="M2870 1495 c0 -9 9 -15 25 -15 28 0 34 15 9 24 -25 10 -34 7 -34 -9z"/>
<path d="M2940 1490 c0 -5 5 -10 10 -10 6 0 10 5 10 10 0 6 -4 10 -10 10 -5 0
-10 -4 -10 -10z"/>
<path d="M444 1427 c-23 -12 -34 -27 -34 -45 0 -16 57 -72 73 -72 6 0 7 3 4 7
-4 3 2 12 13 20 51 36 -1 120 -56 90z"/>
<path d="M3005 1386 c-38 -27 13 -105 53 -80 24 15 27 52 6 75 -20 23 -34 24
-59 5z"/>
<path d="M2886 1333 c4 -16 10 -35 15 -43 7 -13 9 -12 14 3 10 25 -3 67 -20
67 -12 0 -14 -7 -9 -27z"/>
<path d="M2400 1291 c-83 -26 -165 -92 -201 -162 -25 -50 -42 -160 -29 -193
l10 -26 163 0 164 0 -4 -47 c-9 -117 -53 -190 -136 -229 -29 -13 -61 -24 -72
-24 -11 0 -37 -5 -57 -11 -31 -8 -38 -15 -38 -34 0 -38 27 -46 102 -30 36 7
84 23 107 34 96 50 160 153 169 273 4 56 8 68 22 68 10 0 23 -7 30 -15 7 -8
19 -15 26 -15 8 0 14 7 14 15 0 9 9 15 21 15 11 0 27 -7 35 -15 20 -19 44 -19
44 0 0 9 9 15 21 15 11 0 27 -7 35 -15 9 -8 22 -15 30 -15 8 0 14 7 14 15 0
11 11 15 41 15 41 0 41 0 35 32 -3 17 -8 33 -10 35 -1 2 -56 4 -122 4 -65 1
-145 3 -176 6 l-57 5 -3 151 -3 152 -75 2 c-41 1 -86 -2 -100 -6z m108 -183
l-3 -123 -110 -3 c-139 -4 -155 0 -155 36 0 47 48 131 92 159 39 26 113 51
156 52 22 1 23 0 20 -121z"/>
<path d="M4408 1289 c-10 -5 -18 -18 -18 -27 0 -36 21 -42 140 -42 148 0 223
-13 279 -47 52 -33 78 -71 90 -136 l8 -47 -472 0 c-453 0 -474 -1 -496 -19
-38 -31 -16 -55 54 -59 33 -2 60 -9 67 -17 16 -20 50 -19 50 0 0 19 37 19 56
0 20 -19 44 -19 44 0 0 9 9 15 21 15 11 0 27 -7 35 -15 20 -19 54 -19 54 0 0
13 46 15 328 17 l327 3 0 90 c-1 104 -19 150 -81 205 -51 44 -107 68 -190 80
-89 13 -274 12 -296 -1z"/>
<path d="M737 1243 c-3 -5 -8 -75 -11 -155 -4 -109 -10 -159 -24 -196 -43
-113 -124 -172 -248 -180 -174 -11 -302 72 -319 208 -4 30 -14 59 -21 65 -12
8 -12 24 -3 94 10 78 10 86 -7 98 -27 20 -51 -8 -65 -76 -24 -116 7 -248 81
-341 125 -158 407 -173 563 -30 97 88 129 201 118 410 -6 105 -6 105 -33 108
-14 2 -28 -1 -31 -5z"/>
<path d="M3436 987 c-16 -12 -17 -19 -9 -44 8 -22 7 -36 -4 -56 -21 -42 -29
-127 -12 -137 7 -5 19 -5 25 1 9 7 16 4 24 -10 13 -26 27 -27 33 -3 3 12 5 10
6 -7 1 -17 5 -21 17 -17 9 3 18 6 20 6 2 0 4 8 5 18 0 10 3 12 6 5 7 -18 20
-16 43 7 17 17 19 28 14 63 -4 23 -13 54 -20 69 -8 15 -11 39 -9 55 3 15 2 34
-3 41 -13 20 -113 27 -136 9z m12 -198 c-3 -8 -7 -3 -11 10 -4 17 -3 21 5 13
5 -5 8 -16 6 -23z m92 -13 c0 -3 -4 -8 -10 -11 -5 -3 -10 -1 -10 4 0 6 5 11
10 11 6 0 10 -2 10 -4z"/>
<path d="M4578 759 c-27 -16 -23 -65 7 -85 23 -15 27 -15 50 0 60 39 4 121
-57 85z"/>
<path d="M3883 749 c-34 -4 -103 -20 -153 -35 l-92 -28 38 -19 c37 -19 40 -19
84 -2 62 24 179 55 212 55 17 0 31 8 38 20 10 18 8 20 -27 19 -21 -1 -66 -5
-100 -10z"/>
<path d="M3390 425 c-48 -84 -50 -130 -10 -217 18 -39 43 -101 56 -137 l23
-66 109 -3 108 -3 39 58 c27 40 40 72 43 105 4 42 1 49 -28 78 -36 35 -116 74
-137 66 -7 -3 -13 -2 -13 3 0 5 -20 16 -45 25 -53 21 -88 61 -81 92 4 13 -1
27 -13 38 -18 16 -20 15 -51 -39z m90 -201 c0 -14 -12 -19 -23 -8 -9 9 4 35
14 28 5 -3 9 -12 9 -20z m171 -37 c-1 -12 -15 -9 -19 4 -3 6 1 10 8 8 6 -3 11
-8 11 -12z m-146 -57 c3 -5 1 -10 -4 -10 -6 0 -11 5 -11 10 0 6 2 10 4 10 3 0
8 -4 11 -10z m55 -80 c0 -5 -2 -10 -4 -10 -3 0 -8 5 -11 10 -3 6 -1 10 4 10 6
0 11 -4 11 -10z"/>
</g>
</svg>
